Coordinates
version=1
nRows=21
nColumns=12
inDegrees=yes

Units are S.I. units (second, meters, Newtons, ...)
Angles are in degrees

endheader
time	SC_y	SC_z	SC_x	AC_y	AC_z	AC_x	GH_y	GH_z	GH_yy	EL_x	PS_y
       0.0              -19.97          28.11          22.36          36.84          4.611         -5.802          114.3          87.08           40.9          131.9          137.3
   0.01989              -19.98          28.11          22.37          36.84          4.612         -5.803          114.3          87.07          40.89          131.8          137.3
   0.03977              -19.98          28.11          22.37          36.84          4.613         -5.804          114.2          87.06          40.87          131.8          137.3
   0.05966              -19.99          28.11          22.38          36.84          4.614         -5.805          114.2          87.05          40.84          131.8          137.3
   0.07954              -19.99          28.11          22.39          36.84          4.614         -5.806          114.2          87.04          40.82          131.8          137.3
   0.09943               -20.0          28.11           22.4          36.85          4.615         -5.808          114.1          87.03           40.8          131.8          137.3
    0.1193              -20.01           28.1           22.4          36.85          4.616         -5.809          114.1          87.02          40.77          131.8          137.3
    0.1392              -20.01           28.1          22.41          36.85          4.617          -5.81          114.0          87.01          40.74          131.8          137.3
    0.1591              -20.02           28.1          22.42          36.85          4.618         -5.811          113.9           87.0          40.71          131.7          137.3
     0.179              -20.03           28.1          22.43          36.85           4.62         -5.813          113.9          86.98          40.68          131.7          137.3
    0.1989              -20.04          28.09          22.44          36.86          4.621         -5.815          113.8          86.97          40.65          131.7          137.3
    0.2187              -20.04          28.09          22.45          36.86          4.622         -5.816          113.7          86.95          40.61          131.7          137.3
    0.2386              -20.05          28.09          22.47          36.86          4.624         -5.818          113.6          86.94          40.57          131.7          137.3
    0.2585              -20.07          28.09          22.48          36.87          4.625          -5.82          113.6          86.92          40.53          131.6          137.3
    0.2784              -20.08          28.08           22.5          36.87          4.627         -5.823          113.5           86.9          40.48          131.6          137.3
    0.2983              -20.09          28.08          22.51          36.87          4.629         -5.825          113.4          86.88          40.43          131.6          137.3
    0.3182               -20.1          28.07          22.53          36.88          4.631         -5.828          113.2          86.85          40.38          131.6          137.3
    0.3381              -20.12          28.07          22.55          36.88          4.633          -5.83          113.1          86.83          40.32          131.5          137.3
    0.3579              -20.13          28.07          22.57          36.89          4.636         -5.833          113.0           86.8          40.25          131.5          137.3
    0.3778              -20.15          28.06          22.59          36.89          4.638         -5.837          112.8          86.77          40.18          131.4          137.3
    0.3977              -20.17          28.05          22.62           36.9          4.641         -5.841          112.7          86.74           40.1          131.4          137.3
